<?xml version="1.0" encoding="utf-8"?>
<!-- Generator: Adobe Illustrator 24.2.3, SVG Export Plug-In . SVG Version: 6.00 Build 0)  -->
<svg version="1.1" id="IconDesign" xmlns="http://www.w3.org/2000/svg" xmlns:xlink="http://www.w3.org/1999/xlink" x="0px" y="0px"
	 width="36px" height="36px" viewBox="0 0 36 36" enable-background="new 0 0 36 36" xml:space="preserve">
<path fill="#01426A" d="M18,19c-3.1,0-5.6-2.5-5.6-5.6s2.5-5.6,5.6-5.6s5.6,2.5,5.6,5.6S21.1,19,18,19z M18,9.9
	c-2,0-3.6,1.6-3.6,3.6S16,17,18,17s3.6-1.6,3.6-3.6S20,9.9,18,9.9z"/>
<path fill="#01426A" d="M18,33.3l-0.8-0.9c-0.2-0.3-5.2-6.3-8.4-14.2c-1.7-4.1-1.5-8.1,0.4-11c1.8-2.6,4.9-4.1,8.8-4
	c3.9,0,7,1.4,8.8,4c1.9,2.9,2.1,6.9,0.4,11c-3.2,7.9-8.2,13.9-8.4,14.2L18,33.3z M17.9,5.2c-3.2,0-5.6,1.1-7,3.1
	c-1.6,2.3-1.6,5.6-0.2,9.1c2.4,5.8,5.8,10.6,7.3,12.7c1.5-2,4.9-6.9,7.3-12.7c1.4-3.5,1.3-6.8-0.2-9.1c-1.4-2.1-3.9-3.2-7.1-3.1
	C18,5.2,17.9,5.2,17.9,5.2z"/>
</svg>
