<?xml version="1.0" encoding="utf-8"?>
<!-- Generator: Adobe Illustrator 24.2.3, SVG Export Plug-In . SVG Version: 6.00 Build 0)  -->
<svg version="1.1" id="IconDesign" xmlns="http://www.w3.org/2000/svg" xmlns:xlink="http://www.w3.org/1999/xlink" x="0px" y="0px"
	 width="36px" height="36px" viewBox="0 0 36 36" enable-background="new 0 0 36 36" xml:space="preserve">
<path fill="#01426A" d="M29.5,7h-7.4l-3.2,3.2h-1.9L13.9,7H6.5C5.1,7,4,8.1,4,9.5V27h9.6v2h8.7v-2H32V9.5C32,8.1,30.9,7,29.5,7z
	 M30,25H6V9.5C6,9.2,6.2,9,6.5,9h6.5l2.6,2.6l0.6,0.6h0.8h1.9h0.8l0.6-0.6L22.9,9h6.5C29.8,9,30,9.2,30,9.5V25z"/>
</svg>
