<?xml version="1.0" encoding="utf-8"?>
<!-- Generator: Adobe Illustrator 24.2.3, SVG Export Plug-In . SVG Version: 6.00 Build 0)  -->
<svg version="1.1" id="IconDesign" xmlns="http://www.w3.org/2000/svg" xmlns:xlink="http://www.w3.org/1999/xlink" x="0px" y="0px"
	 width="36px" height="36px" viewBox="0 0 36 36" enable-background="new 0 0 36 36" xml:space="preserve">
<path fill="#01426A" d="M30,6H6C4.9,6,4,6.9,4,8v22h28V8C32,6.9,31.1,6,30,6z M30,8v3H6V8H30z M6,28V12h24v16H6z"/>

<rect x="13" y="15" fill="#01426A" width="2" height="2"/>
<rect x="17" y="15" fill="#01426A" width="2" height="2"/>
<rect x="21" y="15" fill="#01426A" width="2" height="2"/>
<rect x="25" y="15" fill="#01426A" width="2" height="2"/>
<rect x="9" y="19" fill="#01426A" width="2" height="2"/>
<rect x="13" y="19" fill="#01426A" width="2" height="2"/>
<rect x="17" y="19" fill="#01426A" width="2" height="2"/>
<rect x="21" y="19" fill="#01426A" width="2" height="2"/>
<rect x="25" y="19" fill="#01426A" width="2" height="2"/>
<rect x="9" y="23" fill="#01426A" width="2" height="2"/>
<rect x="13" y="23" fill="#01426A" width="2" height="2"/>
<rect x="17" y="23" fill="#01426A" width="2" height="2"/>

</svg>
