<?xml version="1.0" encoding="utf-8"?>
<!-- Generator: Adobe Illustrator 24.2.3, SVG Export Plug-In . SVG Version: 6.00 Build 0)  -->
<svg version="1.1" id="IconDesign" xmlns="http://www.w3.org/2000/svg" xmlns:xlink="http://www.w3.org/1999/xlink" x="0px" y="0px"
	 width="36px" height="36px" viewBox="0 0 36 36" enable-background="new 0 0 36 36" xml:space="preserve">
<path fill="#01426A" d="M28.5,21.5c0.1-0.2,0.2-0.3,0.4-0.3l3.2-0.6v-5.1l-3.3-0.6c-0.2,0-0.3-0.2-0.4-0.3c-0.2-0.5-0.4-0.9-0.6-1.4
	c-0.1-0.2-0.1-0.3,0-0.5l1.7-2.7L26,6.3l-2.8,1.9c-0.1,0.1-0.3,0.1-0.5,0c-0.5-0.2-0.9-0.4-1.4-0.6L20.6,4H18h-2.6l-0.7,3.6
	c-0.5,0.2-1,0.3-1.4,0.6c-0.2,0.1-0.3,0.1-0.5,0L10,6.3L6.4,9.9l1.7,2.7c0.1,0.1,0.1,0.3,0,0.5C8,13.5,7.8,14,7.6,14.5
	c-0.1,0.2-0.2,0.3-0.4,0.3L4,15.4v5.1l3.2,0.6c0.2,0,0.3,0.2,0.4,0.3c0.1,0.4,0.3,0.9,0.5,1.3c0.1,0.2,0.1,0.3,0,0.5l-1.9,2.8
	l3.6,3.6l2.7-1.8c0.1-0.1,0.3-0.1,0.5,0c0.5,0.2,1,0.5,1.5,0.6c0.2,0.1,0.3,0.2,0.3,0.4l0.6,3.1H18h2.6l0.6-3.1
	c0-0.2,0.2-0.3,0.3-0.4c0.5-0.2,1-0.4,1.5-0.6c0.2-0.1,0.4-0.1,0.5,0l2.7,1.8l3.6-3.6L28,23.3c-0.1-0.1-0.1-0.3,0-0.5
	C28.1,22.4,28.3,22,28.5,21.5z M27.2,25.8l-1.3,1.3l-2.7-1.8c-1.1,0.8-2.3,1.3-3.7,1.5L18.9,30H18h-0.9l-0.6-3.1
	c-1.4-0.2-2.6-0.7-3.7-1.5l-2.7,1.8l-1.3-1.3c0,0,1.8-2.7,1.8-2.7c-0.7-1.1-1.3-2.3-1.5-3.6l-3-0.6v-1.9l3-0.6
	c0.2-1.4,0.8-2.7,1.6-3.8c0,0-1.7-2.5-1.7-2.5l1.3-1.3l2.6,1.7c1.1-0.7,2.3-1.2,3.6-1.4L17.1,6H18h0.9l0.6,3.1
	c1.3,0.2,2.6,0.7,3.6,1.4l2.6-1.7l1.3,1.3c0,0-1.7,2.5-1.7,2.5c0.8,1.1,1.4,2.4,1.6,3.8l3,0.6v1.9l-3,0.6c-0.2,1.3-0.7,2.6-1.5,3.6
	C25.5,23.2,27.2,25.8,27.2,25.8z"/>
<path fill="#01426A" d="M18,13L18,13L18,13c-2.8,0-5,2.2-5,5s2.2,5,5,5h0h0c2.8,0,5-2.2,5-5S20.8,13,18,13z M18,21L18,21L18,21
	c-1.7,0-3-1.3-3-3s1.3-3,3-3h0h0c1.7,0,3,1.3,3,3S19.7,21,18,21z"/>
</svg>
