<?xml version="1.0" encoding="utf-8"?>
<!-- Generator: Adobe Illustrator 25.1.0, SVG Export Plug-In . SVG Version: 6.00 Build 0)  -->
<svg version="1.1" id="IconDesign" xmlns="http://www.w3.org/2000/svg" xmlns:xlink="http://www.w3.org/1999/xlink" x="0px" y="0px"
	 width="36px" height="36px" viewBox="0 0 36 36" enable-background="new 0 0 36 36" xml:space="preserve">
<path fill="#01426A" d="M23.99,24.98l-1.13,3.19h-1.64l3.92-11.12h2.04l4.09,11.12h-1.75l-1.17-3.19H23.99z M27.95,23.58
	c-1.01-2.81-1.58-4.35-1.82-5.23h-0.02c-0.27,0.97-0.91,2.83-1.72,5.23H27.95z"/>
<path fill="#01426A" d="M33.5,34h-15c-1.38,0-2.5-1.26-2.5-2.82V14.82c0-1.55,1.12-2.82,2.5-2.82h15c1.38,0,2.5,1.26,2.5,2.82v16.36
	C36,32.74,34.88,34,33.5,34z M18.5,14c-0.24,0-0.5,0.35-0.5,0.82v16.36c0,0.47,0.26,0.82,0.5,0.82h15c0.24,0,0.5-0.35,0.5-0.82
	V14.82c0-0.47-0.26-0.82-0.5-0.82H18.5z"/>
<path fill="#01426A" d="M14,16.68c-0.99-0.44-2.03-1-2.9-1.74c1.12-1.26,2.02-2.84,2.61-4.79h1.75V8.78h-4.75v-2H9.18v2H4.53v1.37
	h1.81c0.6,1.93,1.55,3.45,2.63,4.76c-1.18,1.01-2.62,1.95-4.72,2.66l0.83,1.4c1.93-0.77,3.61-1.78,4.93-2.94
	c1.06,0.93,2.54,1.82,3.99,2.45V16.68z M7.95,10.16h4.12c-0.55,1.65-1.23,2.8-2.03,3.7C9.24,12.87,8.44,11.71,7.95,10.16z"/>
<path fill="#01426A" d="M14,22H2.5C2.26,22,2,21.65,2,21.18V4.82C2,4.35,2.26,4,2.5,4h15C17.74,4,18,4.35,18,4.82v5.24
	c0.17-0.02,0.33-0.05,0.5-0.05H20V4.82C20,3.26,18.88,2,17.5,2h-15C1.12,2,0,3.26,0,4.82v16.36C0,22.74,1.12,24,2.5,24H14V22z"/>
</svg>
