<?xml version="1.0" encoding="utf-8"?>
<!-- Generator: Adobe Illustrator 24.2.3, SVG Export Plug-In . SVG Version: 6.00 Build 0)  -->
<svg version="1.1" id="IconDesign" xmlns="http://www.w3.org/2000/svg" xmlns:xlink="http://www.w3.org/1999/xlink" x="0px" y="0px"
	 width="36px" height="36px" viewBox="0 0 36 36" enable-background="new 0 0 36 36" xml:space="preserve">
<path fill="#01426A" d="M11.2,14H9c-1.1,0-2,0.9-2,2v16h22V16c0-1.1-0.9-2-2-2h-2.2v-2.4c0-3.7-3-6.8-6.8-6.8s-6.8,3-6.8,6.8
	L11.2,14z M13.2,11.6c0-2.6,2.1-4.8,4.8-4.8s4.8,2.1,4.8,4.8V14h-9.5L13.2,11.6z M27,30H9V16.5C9,16.2,9.2,16,9.5,16h17
	c0.3,0,0.5,0.2,0.5,0.5V30z"/>
</svg>
