<?xml version="1.0" encoding="utf-8"?>
<!-- Generator: Adobe Illustrator 24.2.3, SVG Export Plug-In . SVG Version: 6.00 Build 0)  -->
<svg version="1.1" id="IconDesign" xmlns="http://www.w3.org/2000/svg" xmlns:xlink="http://www.w3.org/1999/xlink" x="0px" y="0px"
	 width="36px" height="36px" viewBox="0 0 36 36" enable-background="new 0 0 36 36" xml:space="preserve">
<polygon fill="#01426A" points="36,36 36,25.7 34,25.7 34,34 21.6,34 21.6,25.7 19.6,25.7 19.6,36 "/>
<polygon fill="#01426A" points="26.8,22.6 26.8,32.1 28.8,32.1 28.8,22.6 30.9,24.8 32.2,23.3 27.8,18.9 23.3,23.3 24.7,24.8 "/>
<path fill="#01426A" d="M17.6,29.7L15,31.2V18.4l11-6.3l0,5.6l0.4-0.4l1.6-1.6l0-5.8l-14-8L0,10l0,16l14,8l3.5-2V29.7z M13,31.1
	L3,25.4l5.4-3.1L7,20.8l-5,2.9l0-11.5l11,6.3V31.1z M3.2,10.5L13,4.9v6.1h2v-6l9.8,5.6L14,16.7L3.2,10.5z"/>
</svg>
