<?xml version="1.0" encoding="utf-8"?>
<!-- Generator: Adobe Illustrator 24.2.3, SVG Export Plug-In . SVG Version: 6.00 Build 0)  -->
<svg version="1.1" id="IconDesign" xmlns="http://www.w3.org/2000/svg" xmlns:xlink="http://www.w3.org/1999/xlink" x="0px" y="0px"
	 width="36px" height="36px" viewBox="0 0 36 36" enable-background="new 0 0 36 36" xml:space="preserve">
<path fill="#00AAFF" d="M32,6H4C2.9,6,2,6.9,2,8v22h32V8C34,6.9,33.1,6,32,6z M32,8.5v12.4l-6.3,1.3l-6.5-3.5l-4.4,2.4l-6.8-4.6
	L4,19.1V8.5C4,8.2,4.2,8,4.5,8h27C31.8,8,32,8.2,32,8.5z M4,28v-7.7l3.9-2.6l6.8,4.5l4.5-2.4l6.4,3.4L32,22v6H4z"/>
<circle fill="#00AAFF" cx="27" cy="14" r="2"/>
</svg>
