<?xml version="1.0" encoding="utf-8"?>
<!-- Generator: Adobe Illustrator 24.2.3, SVG Export Plug-In . SVG Version: 6.00 Build 0)  -->
<svg version="1.1" id="IconDesign" xmlns="http://www.w3.org/2000/svg" xmlns:xlink="http://www.w3.org/1999/xlink" x="0px" y="0px"
	 width="36px" height="36px" viewBox="0 0 36 36" enable-background="new 0 0 36 36" xml:space="preserve">
<polygon fill="#01426A" points="15.3,9.5 14.3,8.9 14.3,22.4 15.3,21.8 "/>
<polygon fill="#01426A" points="17.8,10.8 16.8,10.3 16.8,20.9 17.8,20.3 "/>
<polygon fill="#01426A" points="20.3,12.1 19.3,11.6 19.3,19.3 20.3,18.7 "/>
<polygon fill="#01426A" points="22.8,13.4 21.8,12.9 21.8,17.8 22.8,17.1 "/>
<polygon fill="#01426A" points="25.3,14.8 24.3,14.2 24.3,16.2 25.3,15.6 "/>
<polygon fill="#01426A" points="12.8,13.8 11.8,17.2 11.8,24 12.8,23.4 "/>
<polygon fill="#01426A" points="10.3,24.9 10.3,22.4 9.4,25.5 "/>
<circle fill="#01426A" cx="13" cy="6" r="2"/>
<circle fill="#01426A" cx="30" cy="15" r="2"/>
<circle fill="#01426A" cx="6" cy="30" r="2"/>
<path fill="#01426A" d="M26.2,16.2L8.8,27.1c0.5,0.5,0.8,1.1,1,1.7l17.5-10.9C26.8,17.4,26.4,16.8,26.2,16.2z"/>
<path fill="#01426A" d="M11,9.4L6.1,26c0.7,0,1.4,0.2,1.9,0.6L12.9,10C12.2,9.9,11.5,9.7,11,9.4z"/>
<path fill="#01426A" d="M16.9,6.9c-0.2,0.7-0.5,1.3-0.9,1.8l10.2,5.4c0.2-0.7,0.5-1.3,0.9-1.8L16.9,6.9z"/>
</svg>
