<?xml version="1.0" encoding="utf-8"?>
<!-- Generator: Adobe Illustrator 25.2.1, SVG Export Plug-In . SVG Version: 6.00 Build 0)  -->
<svg version="1.1" id="IconDesign" xmlns="http://www.w3.org/2000/svg" xmlns:xlink="http://www.w3.org/1999/xlink" x="0px" y="0px"
	 width="36px" height="36px" viewBox="0 0 36 36" enable-background="new 0 0 36 36" xml:space="preserve">
<g>
	<path fill="#FFFFFF" d="M26.2,22.3c-1.6,0-2.9,1.3-2.9,2.9c0,1.6,1.3,2.9,2.9,2.9c1.6,0,2.9-1.3,2.9-2.9
		C29.1,23.6,27.8,22.3,26.2,22.3z M26.2,26.1c-0.5,0-0.9-0.4-0.9-0.9s0.4-0.9,0.9-0.9s0.9,0.4,0.9,0.9S26.7,26.1,26.2,26.1z"/>
	<path fill="#FFFFFF" d="M34.7,24.4c-2.7-3.3-5.6-4.9-8.7-4.9c-5,0.1-8.4,4.7-8.5,4.9L17.1,25l0.3,0.6c2,3.3,5,5.2,8.3,5.3
		c0.1,0,0.2,0,0.3,0c3.3,0,6.4-1.9,8.7-5.3l0.4-0.6L34.7,24.4z M25.8,28.9c-2.4-0.1-4.7-1.4-6.3-3.8c1-1.1,3.4-3.5,6.5-3.6
		c2.2,0,4.5,1.1,6.6,3.5C30.7,27.6,28.3,29,25.8,28.9z"/>
	<path fill="#FFFFFF" d="M16,10l-4-4H4C2.9,6,2,6.9,2,8v22h13.9c-0.8-0.5-1.5-1.2-2.1-2H4V8.5C4,8.2,4.2,8,4.5,8h6.7l4,4H32v5.2
		c0.7,0.4,1.4,0.8,2,1.3V10H16z"/>
</g>
</svg>
